<svg width="400" height="400" viewBox="0 0 400 400" fill="none" xmlns="http://www.w3.org/2000/svg">
<path d="M259.298 36.8894C275.426 18.6711 291.745 9.56195 308.253 9.56195C317.361 9.56195 324.382 12.029 329.315 16.9631C334.438 21.8972 337 27.3058 337 33.1888C337 45.7139 331.308 51.9764 319.923 51.9764C313.661 51.9764 308.253 48.086 303.699 40.3053C299.525 33.0939 295.16 29.4882 290.606 29.4882C283.396 29.4882 275.426 34.4223 266.698 44.2906C276.565 59.852 281.498 76.3623 281.498 93.8215C281.498 116.594 273.339 136.71 257.021 154.17C240.702 171.819 213.189 181.307 174.48 182.636C134.253 183.964 114.14 192.124 114.14 207.117C114.14 214.138 118.694 219.072 127.802 221.919C136.72 224.955 155.505 227.233 184.157 228.751C215.466 230.269 239.564 233.21 256.451 237.575C273.339 241.75 286.811 250.29 296.868 263.195C306.925 276.099 311.953 291.471 311.953 309.31C311.953 334.36 301.707 354.571 281.214 369.942C260.721 385.314 231.215 393 192.696 393C157.402 393 129.13 386.168 107.878 372.504C86.626 358.841 76 341.571 76 320.696C76 309.12 79.036 299.631 85.108 292.23C91.1799 284.829 99.8135 281.128 111.009 281.128C114.045 281.128 116.796 281.603 119.263 282.552C107.498 295.456 101.616 309.12 101.616 323.543C101.616 340.243 109.396 354.001 124.955 364.819C140.704 375.825 164.138 381.329 195.257 381.329C222.961 381.329 244.497 375.731 259.867 364.534C275.426 353.527 283.206 339.389 283.206 322.119C283.206 303.142 276.28 289.763 262.429 281.982C248.577 274.391 223.909 269.837 188.426 268.319C147.63 266.611 121.16 261.582 109.016 253.232C96.8724 245.071 90.8004 234.539 90.8004 221.634C90.8004 196.774 108.162 181.117 142.887 174.665C124.86 164.038 111.293 151.892 102.185 138.229C93.0774 124.565 88.5234 109.288 88.5234 92.3982C88.5234 68.6765 97.8212 48.5605 116.417 32.0501C135.202 15.35 157.402 7 183.019 7C214.707 7 240.133 16.9631 259.298 36.8894ZM131.217 98.9454C131.217 123.426 136.245 141.36 146.302 152.746C156.359 164.133 169.167 169.826 184.726 169.826C199.147 169.826 211.481 164.228 221.727 153.031C232.164 141.645 237.382 122.003 237.382 94.1062C237.382 66.0197 231.879 46.6627 220.874 36.0354C209.868 25.4081 197.439 20.0944 183.588 20.0944C166.131 20.0944 153.038 26.6416 144.31 39.736C135.581 52.8304 131.217 72.5669 131.217 98.9454Z" fill="#2F3B44"/>
</svg>
