<svg width="400" height="400" viewBox="0 0 400 400" fill="none" xmlns="http://www.w3.org/2000/svg">
<path d="M253.516 54.6602C267.904 38.4102 282.461 30.2852 297.188 30.2852C305.312 30.2852 311.576 32.4857 315.977 36.8867C320.547 41.2878 322.832 46.112 322.832 51.3594C322.832 62.5312 317.754 68.1172 307.598 68.1172C302.012 68.1172 297.188 64.6471 293.125 57.707C289.401 51.2747 285.508 48.0586 281.445 48.0586C275.013 48.0586 267.904 52.4596 260.117 61.2617C268.919 75.1419 273.32 89.8685 273.32 105.441C273.32 125.754 266.042 143.697 251.484 159.27C236.927 175.012 212.383 183.475 177.852 184.66C141.966 185.845 124.023 193.124 124.023 206.496C124.023 212.759 128.086 217.16 136.211 219.699C144.167 222.408 160.924 224.439 186.484 225.793C214.414 227.147 235.911 229.771 250.977 233.664C266.042 237.388 278.06 245.005 287.031 256.516C296.003 268.026 300.488 281.737 300.488 297.648C300.488 319.992 291.348 338.02 273.066 351.73C254.785 365.441 228.464 372.297 194.102 372.297C162.617 372.297 137.396 366.203 118.438 354.016C99.4792 341.828 90 326.424 90 307.805C90 297.479 92.7083 289.016 98.125 282.414C103.542 275.812 111.243 272.512 121.23 272.512C123.939 272.512 126.393 272.935 128.594 273.781C118.099 285.292 112.852 297.479 112.852 310.344C112.852 325.24 119.792 337.512 133.672 347.16C147.721 356.978 168.626 361.887 196.387 361.887C221.1 361.887 240.312 356.893 254.023 346.906C267.904 337.089 274.844 324.478 274.844 309.074C274.844 292.147 268.665 280.214 256.309 273.273C243.952 266.503 221.947 262.44 190.293 261.086C153.9 259.562 130.286 255.077 119.453 247.629C108.62 240.35 103.203 230.956 103.203 219.445C103.203 197.271 118.691 183.306 149.668 177.551C133.587 168.072 121.484 157.238 113.359 145.051C105.234 132.863 101.172 119.237 101.172 104.172C101.172 83.013 109.466 65.0703 126.055 50.3438C142.812 35.4479 162.617 28 185.469 28C213.737 28 236.419 36.8867 253.516 54.6602ZM139.258 110.012C139.258 131.848 143.743 147.844 152.715 158C161.686 168.156 173.112 173.234 186.992 173.234C199.857 173.234 210.859 168.241 220 158.254C229.31 148.098 233.965 130.578 233.965 105.695C233.965 80.6432 229.056 63.3776 219.238 53.8984C209.421 44.4193 198.333 39.6797 185.977 39.6797C170.404 39.6797 158.724 45.5195 150.938 57.1992C143.151 68.8789 139.258 86.4831 139.258 110.012Z" fill="#2F3B44"/>
</svg>
