<svg width="241" height="53" viewBox="0 0 241 53" fill="none" xmlns="http://www.w3.org/2000/svg">
<path d="M79.1236 33.1018C80.6236 34.1018 83.3236 35.3018 86.1236 35.3018C88.5236 35.3018 90.2236 34.2018 90.2236 32.1018C90.2236 27.4018 77.7236 28.9018 77.7236 20.8018C77.7236 16.2018 81.7236 13.8018 86.5236 13.8018C89.9236 13.8018 91.7236 14.9018 94.0236 16.4018L92.1236 19.3018C89.8236 18.3018 88.6236 17.6018 86.3236 17.6018C84.0236 17.6018 82.2236 18.6018 82.2236 20.7018C82.2236 25.5018 94.7236 23.8018 94.7236 32.0018C94.7236 36.1018 91.2236 39.1018 86.0236 39.1018C82.0236 39.1018 79.0236 37.4018 77.2236 36.0018L79.1236 33.1018Z" fill="white"/>
<path d="M100.624 51.8019V14.4019H104.924V17.2019C104.924 17.9019 104.824 18.5019 104.824 18.5019H104.924C104.924 18.5019 107.024 13.9019 113.024 13.9019C119.524 13.9019 123.624 19.1019 123.624 26.6019C123.624 34.3019 119.024 39.3019 112.624 39.3019C107.124 39.3019 105.124 35.0019 105.124 35.0019H105.024C105.024 35.0019 105.124 35.9019 105.124 37.1019V52.0019H100.624V51.8019ZM111.924 35.2019C115.724 35.2019 118.924 32.1019 118.924 26.6019C118.924 21.3019 116.124 17.9019 112.124 17.9019C108.524 17.9019 105.124 20.4019 105.124 26.6019C105.124 30.9019 107.524 35.2019 111.924 35.2019Z" fill="white"/>
<path d="M142.324 18.7018C137.624 18.7018 133.424 23.9018 133.424 28.6018V38.7018H128.824V14.4018H133.324V18.7018C133.324 19.7018 133.224 20.5018 133.224 20.5018H133.324C134.424 17.3018 138.724 14.1018 142.424 14.1018V18.7018H142.324Z" fill="white"/>
<path d="M147.124 38.8019V14.4019H151.724V38.7019H147.124V38.8019Z" fill="white"/>
<path d="M175.624 38.8018V24.2018C175.624 20.8018 174.924 18.1018 171.124 18.1018C166.424 18.1018 163.024 22.0018 163.024 27.0018V38.7018H158.424V14.4018H162.924V18.1018C162.924 18.8018 162.824 19.5018 162.824 19.5018H162.924C163.924 17.4018 166.824 13.8018 172.124 13.8018C177.824 13.8018 180.424 16.9018 180.424 23.1018V38.7018H175.624V38.8018Z" fill="white"/>
<path d="M203.024 38.8018L195.724 27.3018H192.124V38.8018H187.524V1.30176H192.124V23.2018H195.624L202.424 14.4018H207.324L199.524 25.0018V25.1018L208.224 38.7018L203.024 38.8018Z" fill="white"/>
<path d="M221.124 38.8018C217.324 38.8018 213.024 38.1018 213.024 32.1018V1.30176H217.624V31.4018C217.624 34.4018 220.124 34.5018 221.124 34.5018V38.8018Z" fill="white"/>
<path d="M240.224 18.5019C235.524 18.5019 231.324 23.7019 231.324 28.4019V38.5019H226.724V14.2019H231.224V18.5019C231.224 19.5019 231.124 20.3019 231.124 20.3019H231.224C232.324 17.1019 236.624 13.9019 240.324 13.9019V18.5019H240.224Z" fill="white"/>
<path d="M149.424 9.30171C151.025 9.30171 152.324 8.00334 152.324 6.40171C152.324 4.80008 151.025 3.50171 149.424 3.50171C147.822 3.50171 146.524 4.80008 146.524 6.40171C146.524 8.00334 147.822 9.30171 149.424 9.30171Z" fill="white"/>
<path d="M5.22378 8.90179C5.42378 5.90179 7.92378 3.30179 11.2238 3.50179C12.1238 3.60179 13.2238 3.60179 14.9238 4.90179C22.3238 11.4018 26.7238 22.8018 25.4238 32.7018C25.3238 33.2018 24.8238 33.2018 24.6238 32.7018C22.5238 25.6018 15.6238 17.5018 9.52379 15.0018C6.62379 13.9018 5.02378 11.8018 5.22378 8.90179Z" fill="#FAA21B"/>
<path d="M24.3237 43.8018C22.4237 37.6018 13.0237 27.3018 6.12371 27.3018C2.52371 27.3018 0.423706 30.3018 0.623706 33.0018C0.823706 36.4018 3.7237 38.1018 6.3237 38.1018C12.2237 38.1018 19.3237 40.6018 23.7237 44.2018C24.0237 44.4018 24.4237 44.2018 24.3237 43.8018Z" fill="#70BF54"/>
<path d="M32.8237 51.2018C32.7237 51.7018 32.2237 51.7018 32.0237 51.2018C24.2237 26.9018 38.2237 0.201836 48.6237 0.00183585C54.1237 -0.0981642 57.9237 3.90184 57.9237 8.40184C57.9237 11.5018 56.9237 14.0018 53.3237 16.0018C44.2237 21.1018 34.0237 34.3018 32.8237 51.2018Z" fill="#00BAE9"/>
<path d="M41.6237 44.1019C41.3237 44.3019 40.9237 44.1019 41.0237 43.7019C42.9237 37.5019 52.3237 27.2019 59.2237 27.2019C62.8237 27.2019 64.9237 30.2019 64.7237 32.9019C64.5237 36.3019 61.6237 38.0019 59.0237 38.0019C53.2237 38.0019 46.1237 40.7019 41.6237 44.1019Z" fill="#128ACB"/>
</svg>
